<svg width="43" height="43" viewBox="0 0 43 43" fill="none" xmlns="http://www.w3.org/2000/svg">
<path fill-rule="evenodd" clip-rule="evenodd" d="M43 21.5C43 33.3741 33.3741 43 21.5 43C9.62585 43 0 33.3741 0 21.5C0 9.62589 9.62585 0 21.5 0C33.3741 0 43 9.62589 43 21.5ZM32.7682 15.1402C33.1218 14.7159 33.0645 14.0854 32.6402 13.7318C32.2159 13.3782 31.5853 13.4355 31.2318 13.8598L19.4328 28.0186L12.7071 21.2929C12.3166 20.9024 11.6834 20.9024 11.2929 21.2929C10.9023 21.6834 10.9023 22.3166 11.2929 22.7071L18.7929 30.2071C18.9916 30.4058 19.2646 30.5117 19.5453 30.499C19.826 30.4862 20.0884 30.356 20.2682 30.1402L32.7682 15.1402Z" fill="#1F4690"/>
</svg>
