<svg width="43" height="43" viewBox="0 0 43 43" fill="none" xmlns="http://www.w3.org/2000/svg">
<path fill-rule="evenodd" clip-rule="evenodd" d="M21.5 43C33.3741 43 43 33.3741 43 21.5C43 9.62589 33.3741 0 21.5 0C9.62589 0 0 9.62589 0 21.5C0 33.3741 9.62589 43 21.5 43ZM20.9453 9.34375H23.0547C23.2422 9.34375 23.3359 9.4375 23.3359 9.625V20.6641H33.8125C34 20.6641 34.0938 20.7578 34.0938 20.9453V23.0547C34.0938 23.2422 34 23.3359 33.8125 23.3359H23.3359V34.375C23.3359 34.5625 23.2422 34.6562 23.0547 34.6562H20.9453C20.7578 34.6562 20.6641 34.5625 20.6641 34.375V23.3359H10.1875C10 23.3359 9.90625 23.2422 9.90625 23.0547V20.9453C9.90625 20.7578 10 20.6641 10.1875 20.6641H20.6641V9.625C20.6641 9.4375 20.7578 9.34375 20.9453 9.34375Z" fill="#1F4690"/>
</svg>
