<svg width="646" height="495" viewBox="0 0 646 495" fill="none" xmlns="http://www.w3.org/2000/svg">
<g clip-path="url(#clip0_439_553)">
<path d="M641.214 286.936H147.967C146.698 286.934 145.482 286.454 144.585 285.599C143.688 284.744 143.183 283.585 143.182 282.376V4.55936C143.183 3.35055 143.688 2.19162 144.585 1.33686C145.482 0.482102 146.698 0.0013196 147.967 0H641.214C642.483 0.0013196 643.7 0.482104 644.597 1.33686C645.494 2.19162 645.999 3.35055 646 4.55936V282.376C645.999 283.585 645.494 284.744 644.597 285.599C643.7 286.454 642.483 286.934 641.214 286.936ZM147.967 1.82374C147.206 1.82453 146.476 2.113 145.938 2.62586C145.399 3.13872 145.097 3.83407 145.096 4.55936V282.376C145.097 283.102 145.399 283.797 145.938 284.31C146.476 284.823 147.206 285.111 147.967 285.112H641.214C641.975 285.111 642.705 284.823 643.244 284.31C643.782 283.797 644.085 283.102 644.086 282.376V4.55936C644.085 3.83407 643.782 3.13872 643.244 2.62586C642.705 2.11301 641.975 1.82453 641.214 1.82374H147.967Z" fill="#E6E6E6"/>
<path d="M347.046 22.1879C346.05 22.2038 345.101 22.5916 344.403 23.2677C343.706 23.9439 343.314 24.8542 343.314 25.8026C343.314 26.7509 343.706 27.6612 344.403 28.3374C345.101 29.0135 346.05 29.4014 347.046 29.4172H442.176C443.181 29.4314 444.15 29.0656 444.871 28.4001C445.593 27.7347 446.008 26.8238 446.026 25.8671C446.044 24.9104 445.663 23.9859 444.967 23.2963C444.271 22.6067 443.316 22.2082 442.312 22.1881L442.301 22.1879C442.259 22.1872 442.218 22.1872 442.176 22.1879H347.046Z" fill="#3F3D56"/>
<path d="M463.75 21.1813C463.61 21.3147 463.531 21.4956 463.531 21.6843C463.531 21.8729 463.61 22.0538 463.75 22.1872L463.75 22.1873L466.955 25.2407H459.051C458.854 25.2413 458.664 25.3165 458.525 25.4498C458.385 25.5832 458.307 25.7638 458.307 25.952C458.307 26.1403 458.385 26.3209 458.525 26.4543C458.664 26.5876 458.854 26.6628 459.051 26.6633H466.955L463.75 29.7168C463.68 29.7829 463.625 29.8613 463.588 29.9476C463.55 30.0339 463.531 30.1264 463.531 30.2198C463.531 30.3132 463.55 30.4057 463.588 30.492C463.625 30.5783 463.68 30.6567 463.75 30.7227C463.819 30.7888 463.901 30.8412 463.992 30.8769C464.082 30.9127 464.179 30.9311 464.277 30.9311C464.376 30.9311 464.473 30.9127 464.563 30.877C464.654 30.8412 464.736 30.7888 464.805 30.7228L469.285 26.455C469.425 26.3216 469.504 26.1407 469.504 25.9521C469.504 25.7634 469.425 25.5825 469.285 25.4491L464.805 21.1813C464.736 21.1153 464.654 21.0629 464.563 21.0272C464.473 20.9914 464.376 20.973 464.278 20.973C464.179 20.973 464.082 20.9914 463.992 21.0272C463.901 21.0629 463.819 21.1153 463.75 21.1813L463.75 21.1813Z" fill="#E6E6E6"/>
<path d="M325.432 21.1814C325.572 21.3147 325.651 21.4956 325.651 21.6843C325.651 21.8729 325.572 22.0538 325.432 22.1872L325.432 22.1873L322.227 25.2408H330.13C330.228 25.2404 330.326 25.2585 330.417 25.294C330.508 25.3296 330.59 25.3818 330.66 25.4478C330.729 25.5138 330.785 25.5922 330.822 25.6786C330.86 25.765 330.88 25.8576 330.88 25.9512C330.88 26.0448 330.861 26.1375 330.823 26.2239C330.786 26.3104 330.73 26.389 330.661 26.4551C330.592 26.5213 330.509 26.5737 330.418 26.6095C330.328 26.6452 330.23 26.6635 330.132 26.6634H322.227L325.432 29.7168C325.501 29.7829 325.556 29.8613 325.594 29.9476C325.631 30.0339 325.651 30.1264 325.651 30.2198C325.651 30.3132 325.631 30.4057 325.594 30.492C325.556 30.5783 325.501 30.6567 325.432 30.7228C325.363 30.7888 325.28 30.8412 325.19 30.877C325.099 30.9127 325.002 30.9311 324.904 30.9311C324.806 30.9311 324.709 30.9127 324.618 30.877C324.528 30.8412 324.445 30.7888 324.376 30.7228L319.897 26.455C319.757 26.3216 319.678 26.1407 319.678 25.9521C319.678 25.7634 319.757 25.5825 319.897 25.4491L324.376 21.1814C324.516 21.048 324.706 20.973 324.904 20.973C325.102 20.973 325.292 21.0479 325.432 21.1813L325.432 21.1814Z" fill="#E6E6E6"/>
<path d="M142.896 302.239C138.571 302.239 134.343 301.017 130.746 298.728C127.15 296.438 124.347 293.184 122.692 289.377C121.036 285.57 120.603 281.381 121.447 277.339C122.291 273.298 124.374 269.585 127.432 266.672C130.491 263.758 134.387 261.774 138.63 260.97C142.872 260.166 147.269 260.578 151.265 262.155C155.261 263.732 158.677 266.403 161.08 269.829C163.483 273.255 164.765 277.283 164.765 281.404C164.765 286.93 162.461 292.229 158.36 296.136C154.259 300.044 148.696 302.239 142.896 302.239Z" fill="#1F4690"/>
<path d="M151.525 279.349H145.053V273.183C145.053 272.638 144.826 272.115 144.422 271.73C144.017 271.344 143.468 271.128 142.896 271.128C142.324 271.128 141.775 271.344 141.371 271.73C140.966 272.115 140.739 272.638 140.739 273.183V279.349H134.267C133.695 279.349 133.146 279.565 132.742 279.951C132.337 280.336 132.11 280.859 132.11 281.404C132.11 281.949 132.337 282.472 132.742 282.857C133.146 283.243 133.695 283.459 134.267 283.459H140.739V289.625C140.739 290.17 140.966 290.693 141.371 291.078C141.775 291.464 142.324 291.68 142.896 291.68C143.468 291.68 144.017 291.464 144.422 291.078C144.826 290.693 145.053 290.17 145.053 289.625V283.459H151.525C152.097 283.459 152.646 283.243 153.05 282.857C153.455 282.472 153.682 281.949 153.682 281.404C153.682 280.859 153.455 280.336 153.05 279.951C152.646 279.565 152.097 279.349 151.525 279.349Z" fill="white"/>
<path d="M248.786 59.1973H183.062V101.751H248.786V59.1973Z" fill="#F1F1F1"/>
<path d="M338.119 59.1973H272.396V101.751H338.119V59.1973Z" fill="#F1F1F1"/>
<path d="M427.453 59.1973H361.729V101.751H427.453V59.1973Z" fill="#F1F1F1"/>
<path d="M516.786 59.1973H451.062V101.751H516.786V59.1973Z" fill="#F1F1F1"/>
<path d="M606.119 59.1973H540.395V101.751H606.119V59.1973Z" fill="#F1F1F1"/>
<path d="M249.027 133.971H183.303V176.525H249.027V133.971Z" fill="#F1F1F1"/>
<path d="M338.36 133.971H272.637V176.525H338.36V133.971Z" fill="#F1F1F1"/>
<path d="M427.694 133.971H361.97V176.525H427.694V133.971Z" fill="#F1F1F1"/>
<path d="M517.027 133.971H451.303V176.525H517.027V133.971Z" fill="#F1F1F1"/>
<path d="M606.36 133.971H540.636V176.525H606.36V133.971Z" fill="#F1F1F1"/>
<path d="M249.268 208.744H183.544V251.298H249.268V208.744Z" fill="#F1F1F1"/>
<path d="M338.601 208.744H272.878V251.298H338.601V208.744Z" fill="#F1F1F1"/>
<path d="M427.935 208.744H362.211V251.298H427.935V208.744Z" fill="#F1F1F1"/>
<path d="M517.268 208.744H451.544V251.298H517.268V208.744Z" fill="#F1F1F1"/>
<path d="M606.601 208.744H540.877V251.298H606.601V208.744Z" fill="#F1F1F1"/>
<path d="M375.37 80.4742C379.951 80.4742 383.665 76.936 383.665 72.5713C383.665 68.2067 379.951 64.6685 375.37 64.6685C370.789 64.6685 367.075 68.2067 367.075 72.5713C367.075 76.936 370.789 80.4742 375.37 80.4742Z" fill="#1F4690"/>
<path d="M284.761 155.248C289.342 155.248 293.056 151.71 293.056 147.345C293.056 142.98 289.342 139.442 284.761 139.442C280.179 139.442 276.465 142.98 276.465 147.345C276.465 151.71 280.179 155.248 284.761 155.248Z" fill="#1F4690"/>
<path d="M375.37 230.021C379.951 230.021 383.665 226.483 383.665 222.118C383.665 217.754 379.951 214.215 375.37 214.215C370.789 214.215 367.075 217.754 367.075 222.118C367.075 226.483 370.789 230.021 375.37 230.021Z" fill="#1F4690"/>
<path d="M466.617 155.248C471.199 155.248 474.913 151.71 474.913 147.345C474.913 142.98 471.199 139.442 466.617 139.442C462.036 139.442 458.322 142.98 458.322 147.345C458.322 151.71 462.036 155.248 466.617 155.248Z" fill="#3F3D56"/>
<path d="M555.313 155.248C559.894 155.248 563.608 151.71 563.608 147.345C563.608 142.98 559.894 139.442 555.313 139.442C550.731 139.442 547.017 142.98 547.017 147.345C547.017 151.71 550.731 155.248 555.313 155.248Z" fill="#3F3D56"/>
<path d="M284.761 230.021C289.342 230.021 293.056 226.483 293.056 222.118C293.056 217.754 289.342 214.215 284.761 214.215C280.179 214.215 276.465 217.754 276.465 222.118C276.465 226.483 280.179 230.021 284.761 230.021Z" fill="#3F3D56"/>
<path d="M67.2657 297.6C75.7748 297.6 82.6728 291.029 82.6728 282.922C82.6728 274.815 75.7748 268.244 67.2657 268.244C58.7565 268.244 51.8585 274.815 51.8585 282.922C51.8585 291.029 58.7565 297.6 67.2657 297.6Z" fill="#FFB8B8"/>
<path d="M61.7029 369.777C61.5089 369.777 61.314 369.769 61.1182 369.752C60.1492 369.675 59.2083 369.404 58.357 368.956C57.5057 368.509 56.7633 367.895 56.1784 367.155C55.5936 366.415 55.1794 365.565 54.9632 364.662C54.747 363.759 54.7335 362.822 54.9236 361.914C54.9686 361.703 55.0251 361.494 55.093 361.289L32.3534 335.667C31.6124 334.825 31.176 333.779 31.1088 332.682C31.0416 331.586 31.3473 330.498 31.9805 329.58L32.0217 329.532L52.4901 310.304C53.6078 309.256 55.1167 308.673 56.6851 308.684C58.2535 308.695 59.7532 309.299 60.8544 310.363C61.9556 311.427 62.5683 312.864 62.5578 314.358C62.5473 315.853 61.9145 317.282 60.7984 318.332C60.7727 318.356 60.7468 318.38 60.7206 318.404L45.8961 331.83L62.1253 356.646C62.4327 356.661 62.7386 356.697 63.0407 356.753C64.7195 357.073 66.2138 357.975 67.2336 359.285C68.2533 360.595 68.7257 362.219 68.559 363.842C68.3923 365.465 67.5983 366.971 66.3314 368.068C65.0644 369.165 63.4148 369.774 61.7029 369.777Z" fill="#FFB8B8"/>
<path d="M92.6409 487.209H100.332L103.99 458.948L92.6396 458.949L92.6409 487.209Z" fill="#FFB8B8"/>
<path d="M90.6796 484.817L105.825 484.816H105.826C107.093 484.816 108.348 485.054 109.519 485.516C110.69 485.978 111.754 486.656 112.65 487.509C113.547 488.363 114.258 489.377 114.743 490.492C115.228 491.608 115.477 492.804 115.478 494.011V494.311L90.68 494.311L90.6796 484.817Z" fill="#2F2E41"/>
<path d="M16.2013 477.079L22.8092 480.827L41.1295 458.329L31.3766 452.797L16.2013 477.079Z" fill="#FFB8B8"/>
<path d="M15.8003 474.068L28.8137 481.449L28.8142 481.45C31.0137 482.697 32.6028 484.726 33.232 487.09C33.8612 489.454 33.479 491.959 32.1694 494.055L32.1692 494.055L32.0088 494.312L10.702 482.226L15.8003 474.068Z" fill="#2F2E41"/>
<path d="M102.146 477.228H93.5348C92.8374 477.229 92.1645 476.983 91.646 476.539C91.1275 476.095 90.8004 475.483 90.7278 474.822L82.0459 397.073C82.024 396.877 81.9351 396.694 81.793 396.551C81.6508 396.408 81.4633 396.314 81.2593 396.282C81.0553 396.251 80.8462 396.285 80.6643 396.378C80.4824 396.471 80.3377 396.619 80.2526 396.798L64.5903 429.839L36.861 472.916C36.5022 473.469 35.9465 473.879 35.2958 474.073C34.6451 474.267 33.9429 474.231 33.3178 473.972L22.2402 469.328C21.8739 469.175 21.5461 468.949 21.2785 468.665C21.0108 468.382 20.8095 468.047 20.6879 467.684C20.5662 467.321 20.527 466.937 20.5729 466.558C20.6187 466.179 20.7485 465.814 20.9537 465.487L46.4445 424.823L54.2623 390.562C51.8035 375.704 62.3443 353.615 62.4512 353.393L62.5035 353.285L91.5385 342.473L91.6842 342.643C103.135 378.443 110.112 416.969 104.96 474.763C104.897 475.434 104.573 476.058 104.053 476.513C103.533 476.969 102.853 477.224 102.146 477.228Z" fill="#2F2E41"/>
<path d="M61.3337 356.905L61.1985 356.634C61.1339 356.505 54.6777 343.532 49.7008 329.667C48.7443 326.986 48.3828 324.144 48.639 321.323C48.8952 318.502 49.7636 315.762 51.1893 313.277C52.6335 310.766 54.6092 308.569 56.9914 306.824C59.3735 305.079 62.1101 303.824 65.0279 303.139C70.0932 301.982 75.426 302.598 80.0549 304.873C84.6838 307.148 88.3007 310.932 90.2465 315.536C94.1943 324.941 92.9361 334.979 91.7521 342.874L91.7285 343.032L91.5775 343.101L61.3337 356.905Z" fill="#1F4690"/>
<path d="M85.9464 274.631H61.4817V264.471C66.8514 262.438 72.1059 260.71 75.2823 264.471C78.1106 264.471 80.823 265.541 82.8229 267.447C84.8228 269.352 85.9464 271.936 85.9464 274.631H85.9464Z" fill="#2F2E41"/>
<path d="M60.1272 262.678C45.5017 262.678 41.4081 280.143 41.4081 289.996C41.4081 295.491 44.0165 297.457 48.1154 298.122L49.563 290.767L52.9534 298.438C54.1047 298.444 55.3143 298.423 56.5683 298.4L57.7178 296.145L60.2812 298.36C70.5481 298.374 78.846 299.8 78.846 289.996C78.846 280.143 75.2559 262.678 60.1272 262.678Z" fill="#2F2E41"/>
<path d="M125.136 282.225C125.229 282.387 125.315 282.554 125.394 282.726C125.788 283.573 125.989 284.49 125.985 285.416C125.98 286.342 125.771 287.257 125.369 288.101C124.968 288.945 124.384 289.698 123.656 290.312C122.928 290.926 122.071 291.386 121.143 291.663C120.927 291.727 120.708 291.779 120.486 291.821L107.787 323.117C107.367 324.14 106.612 325.007 105.635 325.589C104.657 326.17 103.508 326.436 102.359 326.347L102.295 326.336L74.7702 318.441C73.2676 318.01 72.0063 317.028 71.2638 315.711C70.5212 314.394 70.3583 312.85 70.8107 311.419C71.2632 309.987 72.294 308.785 73.6764 308.078C75.0588 307.371 76.6796 307.215 78.1822 307.646C78.2165 307.656 78.2507 307.666 78.2849 307.677L97.7604 313.634L112.838 288.167C112.705 287.903 112.591 287.63 112.498 287.351C111.988 285.794 112.102 284.112 112.82 282.632C113.538 281.151 114.807 279.977 116.382 279.339C117.957 278.7 119.725 278.641 121.343 279.175C122.961 279.708 124.313 280.795 125.136 282.225L125.136 282.225Z" fill="#FFB8B8"/>
<path d="M128.328 495H0.664913C0.488567 495 0.319443 494.933 0.194748 494.815C0.0700526 494.696 0 494.535 0 494.367C0 494.199 0.0700526 494.037 0.194748 493.919C0.319443 493.8 0.488567 493.733 0.664913 493.733H128.328C128.505 493.733 128.674 493.8 128.798 493.919C128.923 494.037 128.993 494.199 128.993 494.367C128.993 494.535 128.923 494.696 128.798 494.815C128.674 494.933 128.505 495 128.328 495Z" fill="#CCCCCC"/>
</g>
<defs>
<clipPath id="clip0_439_553">
<rect width="646" height="495" fill="white"/>
</clipPath>
</defs>
</svg>
